<svg width="984" height="262" viewBox="0 0 984 262" fill="none" xmlns="http://www.w3.org/2000/svg">
<path d="M143.131 189.567C143.571 189.567 143.79 189.64 143.79 189.787C143.644 190.08 143.497 190.3 143.351 190.446C121.935 194.385 105.557 193.066 94.181 186.508C88.795 183.448 83.5373 178.905 78.4445 172.86C73.3516 166.814 68.2771 160.402 63.2575 153.624C58.238 146.846 53.6764 141.79 49.6094 138.437C42.9045 132.612 40.5046 127.812 42.3915 124.02C44.5716 119.641 50.617 118.414 60.5279 120.301C68.9733 121.766 76.7408 121.217 83.7938 118.67C90.8652 116.124 96.5809 112.185 100.941 106.873C105.319 101.56 108.617 95.4045 110.888 88.4064C113.142 81.4083 114.058 74.0622 113.618 66.3313C113.325 59.0401 111.621 51.987 108.489 45.1355C105.356 38.284 101.161 32.1653 95.9214 26.7793C90.682 21.3933 84.0869 17.0882 76.1545 13.8823C68.2221 10.6764 59.5753 9.08259 50.269 9.08259H27.0947V167.071C27.3878 177.989 30.5937 185.5 36.7125 189.585H0C3.93871 186.819 6.52177 183.503 7.74919 179.638C8.9766 175.772 9.59946 170.863 9.59946 164.891V29.1792C9.59946 23.207 8.9766 18.2973 7.74919 14.4319C6.52177 10.5848 3.93871 7.26895 0 4.48438H65.1078C75.1653 4.48438 84.4716 6.22474 93.0818 9.72378C101.674 13.2228 108.782 17.9126 114.388 23.8115C119.993 29.7104 124.445 36.3421 127.724 43.6883C131.003 51.0528 132.78 58.7287 133.073 66.7343C133.513 76.6452 131.974 85.7134 128.494 93.9389C124.995 102.164 119.938 108.833 113.307 113.926C106.675 119.018 98.8159 122.554 89.711 124.514C80.6062 126.474 70.5854 126.145 59.6669 123.525C54.1344 122.646 50.1957 122.609 47.8691 123.415C45.5425 124.221 45.1395 125.742 46.66 127.995C48.1805 130.248 51.3498 132.557 56.1679 134.883C58.3479 135.909 60.3997 136.917 62.2866 137.943C64.1735 138.968 65.8589 139.884 67.3062 140.672C68.7534 141.478 70.3289 142.449 71.996 143.622C73.6631 144.794 74.9454 145.655 75.8248 146.241C76.7041 146.828 77.9682 147.872 79.6536 149.411C81.3207 150.931 82.4931 151.957 83.1526 152.47C83.8121 152.983 85.0762 154.21 86.9814 156.189C88.8683 158.149 90.1141 159.431 90.7003 160.018C91.2865 160.604 92.7338 162.161 95.0787 164.707C97.4053 167.254 98.9441 168.976 99.6586 169.837C101.839 172.163 103.817 174.142 105.557 175.736C107.298 177.348 109.35 179.088 111.676 180.975C114.003 182.862 116.183 184.291 118.235 185.244C120.268 186.196 122.723 187.204 125.562 188.303C128.402 189.402 131.132 189.897 133.751 189.824C136.371 189.75 139.504 189.64 143.149 189.494L143.131 189.567Z" fill="white"/>
<path d="M189.667 16.8318C200.293 8.60628 211.926 4.48438 224.511 4.48438C237.097 4.48438 248.766 8.60628 259.465 16.8318C270.163 25.0573 278.627 36.2872 284.819 50.4848C291.011 64.6825 294.107 80.1626 294.107 96.925C294.107 113.687 291.011 129.149 284.819 143.365C278.627 157.563 270.182 168.829 259.465 177.128C248.766 185.427 237.133 189.585 224.621 189.585C215.15 189.585 206.118 187.149 197.526 182.258C188.934 177.385 181.533 170.79 175.341 162.491C169.149 154.192 164.24 144.318 160.594 132.886C156.948 121.455 155.135 109.474 155.135 96.9433C155.135 80.1992 158.231 64.7192 164.423 50.5032C170.615 36.3055 179.024 25.0756 189.667 16.8501V16.8318ZM207.914 178.429C216.432 184.401 225.207 186.325 234.239 184.218C243.27 182.111 251.166 176.285 257.944 166.741C264.723 157.196 269.596 145.179 272.582 130.688C275.568 116.197 276.191 101.047 274.432 85.2371C272.692 69.4273 268.863 55.3762 262.964 43.0654C257.065 30.7547 249.847 21.5765 241.328 15.5311C232.81 9.48562 224.035 7.52543 215.003 9.63218C205.972 11.7389 198.039 17.6012 191.188 27.219C184.336 36.8368 179.427 48.8544 176.44 63.2719C173.454 77.6894 172.831 92.8031 174.59 108.613C176.331 124.423 180.196 138.51 186.168 150.894C192.14 163.279 199.395 172.457 207.914 178.429ZM241.017 96.2655C241.31 96.2655 241.457 96.4853 241.457 96.925C241.457 97.3647 241.31 97.6578 241.017 97.8043C232.279 101.157 227.039 106.909 225.28 115.061C225.28 115.354 225.024 115.501 224.511 115.501C223.998 115.501 223.742 115.354 223.742 115.061C222.276 107.624 217.037 101.871 208.005 97.8043C207.712 97.6578 207.565 97.3647 207.565 96.925C207.565 96.4853 207.712 96.2655 208.005 96.2655C215.864 93.9389 221.122 88.1866 223.742 79.0084C223.888 78.7153 224.181 78.5688 224.621 78.5688C225.061 78.5688 225.28 78.7153 225.28 79.0084C228.486 89.2125 233.726 94.9648 241.017 96.2655Z" fill="white"/>
<path d="M443.574 179.73C448.227 183.961 453.192 187.241 458.431 189.567H417.579C419.466 186.801 419.466 183.155 417.579 178.649C416.26 175.443 413.42 170.863 409.06 164.891C407.595 162.857 404.004 157.966 398.252 150.253C392.499 142.541 388.084 136.569 385.025 132.337C382.698 129.277 376.579 120.979 366.669 107.422L364.928 109.822C362.455 113.468 358.919 118.597 354.34 125.229C349.76 131.86 346.792 136.129 345.491 138.016V167.071C345.638 172.31 346.407 176.798 347.781 180.517C349.155 184.236 351.61 187.259 355.109 189.585H318.396C322.335 186.819 324.918 183.503 326.146 179.638C327.373 175.772 327.996 170.863 327.996 164.891V29.1792C327.996 23.207 327.373 18.2973 326.146 14.4319C324.9 10.5665 322.317 7.25063 318.396 4.48438H355.109C348.99 8.56964 345.784 16.0624 345.491 26.9991V131.659L361.008 109.364C388.249 69.8853 406.752 43.157 416.516 29.1792C419.869 24.2329 421.829 19.7812 422.415 15.8425C423.294 10.7497 421.756 6.95752 417.835 4.48438H454.548C447.989 5.80339 441.358 9.21083 434.671 14.7617C429.138 19.14 424.32 24.3062 420.253 30.2783C409.335 46.0149 394.972 66.6244 377.202 92.1253C379.822 95.6243 384.915 102.549 392.499 112.881C400.065 123.232 405.103 130.065 407.576 133.418C419.667 149.887 427.966 161.098 432.491 167.071C436.43 172.31 440.13 176.542 443.629 179.748L443.574 179.73Z" fill="white"/>
<path d="M581.886 8.86276H500.602V95.1663H555.89C561.716 95.1663 567.138 93.8473 572.176 91.2276C577.196 88.6079 580.365 84.4494 581.684 78.7703V115.263C579.064 109.73 575.492 105.755 570.986 103.355C566.461 100.955 561.807 99.7462 557.008 99.7462H500.638V185.189H581.922C587.748 185.189 593.134 183.851 598.099 181.14C603.045 178.447 606.177 174.252 607.496 168.573V189.549H473.544C477.482 186.783 480.065 183.467 481.293 179.601C482.52 175.736 483.143 170.826 483.143 164.854V29.1792C483.143 25.2405 482.96 22.0345 482.594 19.5614C482.227 17.0882 481.311 14.4319 479.864 11.5924C478.398 8.75284 476.292 6.38961 473.525 4.48438H607.478V25.4603C606.178 19.7812 603.027 15.586 598.08 12.8931C593.134 10.2001 587.73 8.84444 581.904 8.84444L581.886 8.86276Z" fill="white"/>
<path d="M742.054 4.4883H764.349C760.849 5.07452 757.424 6.06378 754.071 7.43775C750.719 8.83004 747.586 10.4238 744.673 12.2375C741.76 14.0694 739.177 16.2128 736.924 18.686C734.671 21.1591 732.875 23.7055 731.575 26.3252L694.642 105.429V167.056C694.936 177.975 698.801 185.486 706.22 189.571H665.368C670.168 186.805 673.3 183.489 674.766 179.623C676.213 175.758 676.946 170.848 676.946 164.876L677.166 139.962C677.166 137.488 677.312 135.235 677.605 133.183C677.898 131.15 678.558 128.805 679.565 126.185C680.573 123.566 681.379 121.642 681.965 120.396C682.552 119.169 683.926 116.494 686.124 112.427C688.304 108.342 689.843 105.429 690.704 103.689C683.999 102.663 678.283 100.226 673.557 96.361C668.83 92.4956 665.075 87.8057 662.308 82.2732C659.542 76.7407 657.069 70.6586 654.871 64.0269C652.691 57.3952 650.364 50.6903 647.873 43.9304C645.399 37.1521 642.523 30.8502 639.244 25.0245C635.965 19.1989 631.495 14.1061 625.797 9.7277C620.118 5.34932 613.267 2.38155 605.261 0.769422C604.528 0.622866 604.382 0.403031 604.822 0.109917C604.968 -0.0366392 605.188 -0.0366392 605.481 0.109917C616.253 0.696144 625.614 2.65634 633.565 6.00882C641.497 9.36131 647.763 13.5931 652.361 18.686C656.941 23.7788 660.806 29.3846 663.939 35.5033C667.072 41.6221 669.545 47.9973 671.377 54.629C673.19 61.2607 674.912 67.526 676.506 73.4249C678.1 79.3238 680.152 84.8197 682.625 89.9308C685.098 95.0237 688.084 98.9624 691.583 101.729L727.416 25.2444C728.149 23.504 728.589 21.6721 728.735 19.7851C728.882 17.8982 728.699 15.993 728.186 14.1061C727.673 12.2192 726.72 10.4238 725.346 8.75676C723.954 7.08968 722.104 5.66075 719.777 4.4883H742.072H742.054Z" fill="white"/>
<path d="M872.925 185.21C878.75 185.21 884.136 183.873 889.101 181.162C894.047 178.469 897.18 174.273 898.499 168.594V189.57H747.289C752.089 186.804 755.771 183.488 758.317 179.623C760.864 175.757 763.154 170.921 765.206 165.095C767.239 159.27 770.885 148.589 776.124 133.091C781.363 117.574 785.449 105.593 788.362 97.148C791.421 88.4096 795.689 76.0255 801.149 59.9959C806.608 43.9663 810.07 33.7073 811.536 29.1824C812.855 25.2436 813.753 22.0377 814.265 19.5646C814.778 17.0914 814.778 14.4351 814.265 11.5956C813.753 8.75602 812.488 6.39279 810.437 4.48756H846.929C844.749 5.80657 842.771 7.29045 841.03 8.97586C839.29 10.6613 837.751 12.5848 836.45 14.7648C835.131 16.9449 834.124 18.9234 833.391 20.6638C832.658 22.4041 831.779 24.6757 830.771 27.442C827.712 36.1804 823.187 49.2606 817.215 66.6642C811.243 84.0678 806.791 97.2213 803.878 106.106C801.405 113.397 798.529 121.806 795.25 131.351C791.971 140.895 788.691 150.44 785.412 159.966C782.133 169.51 779.183 177.919 776.564 185.21H872.925ZM972.345 179.751C975.258 183.983 978.904 187.262 983.264 189.589H946.551C949.611 186.822 951.058 183.177 950.93 178.67C950.783 175.464 949.757 170.958 947.87 165.114L922.956 92.3483C920.629 98.7601 915.445 104.146 907.439 108.524C903.94 110.411 898.188 112.793 890.182 115.632C882.176 118.472 875.618 121.421 870.525 124.481C865.432 127.54 861.86 131.406 859.826 136.059L858.306 140.639C856.565 145.585 856.126 150.037 856.987 153.975C858.013 158.922 860.852 162.714 865.505 165.333H828.793C834.912 164.014 840.371 160.607 845.189 155.056C849.256 150.55 852.26 145.365 854.147 139.54C857.5 129.922 862.189 116.164 868.235 98.2472C874.28 80.3306 878.622 67.5802 881.242 60.0142C883.129 54.4817 885.364 48.0332 887.91 40.6687C890.457 33.3226 893.113 25.4085 895.879 16.9632C895.586 16.377 895.293 15.864 895 15.4427C892.087 10.9361 888.148 7.29045 883.202 4.5242C885.529 4.5242 888.038 4.48756 890.75 4.41428C893.443 4.341 895.476 4.23108 896.868 4.08453C898.242 3.93797 899.818 3.93797 901.558 4.08453C903.299 4.23108 904.544 4.41428 905.277 4.63411C906.01 4.85395 906.944 5.3669 908.117 6.15464C909.289 6.9607 910.15 7.78508 910.736 8.66442C911.323 9.54376 912.037 10.9177 912.916 12.823C913.796 14.7099 914.584 16.725 915.316 18.8318C916.049 20.9385 916.91 23.6865 917.936 27.0206C921.875 38.3788 929.88 61.7546 941.971 97.1663C943.73 102.259 945.727 108.066 947.98 114.533C950.233 121.018 952.249 126.881 953.989 132.12C955.729 137.359 957.745 143.222 959.998 149.707C962.251 156.192 964.266 161.981 966.007 167.074C967.894 172.313 970.019 176.545 972.345 179.751ZM875.105 116.823C876.699 115.944 878.677 115.083 881.004 114.204C883.33 113.324 885.51 112.536 887.562 111.804C889.596 111.071 891.831 110.247 894.23 109.294C896.63 108.341 898.81 107.444 900.789 106.564C902.767 105.685 904.728 104.641 906.688 103.395C908.648 102.168 910.407 100.958 911.927 99.786C913.448 98.6136 914.803 97.2396 915.976 95.6275C917.148 94.0337 918.009 92.3849 918.595 90.7178C919.182 89.0507 919.438 87.1455 919.365 85.0388C919.292 82.932 918.889 80.697 918.156 78.3704L917.276 75.9706C915.225 69.8518 909.839 54.2619 901.1 29.219C900.221 26.4527 899.36 24.1262 898.481 22.2209C892.069 41.0168 887.782 53.7672 885.584 60.4539L863.728 124.481C865.615 122.008 869.407 119.461 875.086 116.842L875.105 116.823Z" fill="white"/>
<path d="M24.0473 254.59C20.7984 254.59 17.6882 254.135 14.7167 253.223C11.7452 252.273 9.38781 251.064 7.64452 249.598L10.3189 243.596C11.9829 244.903 14.0432 245.993 16.4996 246.864C18.9561 247.736 21.472 248.172 24.0473 248.172C26.2264 248.172 27.9895 247.934 29.3366 247.459C30.6837 246.983 31.6742 246.349 32.3081 245.557C32.942 244.725 33.259 243.794 33.259 242.764C33.259 241.496 32.8034 240.486 31.8921 239.733C30.9808 238.94 29.7922 238.326 28.3263 237.89C26.8999 237.415 25.2953 236.979 23.5124 236.583C21.7691 236.187 20.006 235.731 18.2231 235.216C16.4798 234.661 14.8752 233.968 13.4093 233.136C11.9829 232.264 10.8141 231.115 9.90287 229.689C8.9916 228.263 8.53597 226.44 8.53597 224.221C8.53597 221.963 9.13027 219.903 10.3189 218.041C11.5471 216.139 13.3894 214.633 15.8459 213.524C18.342 212.375 21.4918 211.801 25.2953 211.801C27.7914 211.801 30.2677 212.118 32.7241 212.751C35.1806 213.385 37.3201 214.297 39.1426 215.485L36.706 221.488C34.8438 220.378 32.9222 219.566 30.9412 219.051C28.9602 218.496 27.0584 218.219 25.2359 218.219C23.0964 218.219 21.3531 218.477 20.006 218.992C18.6986 219.507 17.7279 220.18 17.0939 221.012C16.4996 221.844 16.2025 222.795 16.2025 223.865C16.2025 225.133 16.6383 226.163 17.51 226.955C18.4212 227.708 19.59 228.302 21.0163 228.738C22.4823 229.174 24.1067 229.61 25.8896 230.046C27.6725 230.442 29.4356 230.898 31.1789 231.413C32.9618 231.928 34.5665 232.601 35.9928 233.433C37.4587 234.265 38.6275 235.394 39.4992 236.821C40.4104 238.247 40.8661 240.05 40.8661 242.229C40.8661 244.448 40.252 246.508 39.0237 248.41C37.8351 250.272 35.9928 251.777 33.4967 252.926C31.0006 254.036 27.8508 254.59 24.0473 254.59ZM65.7618 253.996V212.395H73.4878V253.996H65.7618ZM121.409 254.59C118.16 254.59 115.168 254.075 112.435 253.045C109.74 251.975 107.383 250.49 105.362 248.588C103.342 246.647 101.777 244.368 100.667 241.753C99.558 239.139 99.0033 236.286 99.0033 233.195C99.0033 230.105 99.558 227.252 100.667 224.638C101.777 222.023 103.342 219.764 105.362 217.862C107.423 215.921 109.82 214.435 112.553 213.405C115.287 212.335 118.279 211.801 121.527 211.801C125.054 211.801 128.223 212.375 131.036 213.524C133.889 214.673 136.286 216.357 138.227 218.576L133.354 223.33C131.73 221.706 129.967 220.517 128.065 219.764C126.203 218.972 124.142 218.576 121.884 218.576C119.705 218.576 117.684 218.932 115.822 219.645C113.96 220.359 112.355 221.369 111.008 222.676C109.661 223.984 108.611 225.529 107.858 227.312C107.145 229.095 106.789 231.056 106.789 233.195C106.789 235.295 107.145 237.237 107.858 239.02C108.611 240.803 109.661 242.368 111.008 243.715C112.355 245.022 113.94 246.032 115.763 246.746C117.585 247.459 119.606 247.815 121.825 247.815C123.885 247.815 125.866 247.498 127.768 246.864C129.709 246.191 131.551 245.082 133.295 243.536L137.692 249.301C135.513 251.044 132.978 252.372 130.085 253.283C127.233 254.155 124.34 254.59 121.409 254.59ZM130.383 248.291V232.72H137.692V249.301L130.383 248.291ZM165.117 253.996V212.395H171.476L197.566 244.428H194.416V212.395H202.083V253.996H195.724L169.634 221.963H172.784V253.996H165.117ZM224.582 253.996L243.302 212.395H250.909L269.689 253.996H261.607L245.501 216.496H248.591L232.545 253.996H224.582ZM233.199 244.368L235.279 238.306H257.744L259.824 244.368H233.199ZM298.564 253.996V218.932H284.777V212.395H320.078V218.932H306.29V253.996H298.564ZM360.245 254.59C354.54 254.59 350.063 252.986 346.814 249.777C343.605 246.567 342 241.932 342 235.87V212.395H349.726V235.573C349.726 239.852 350.637 242.962 352.46 244.903C354.322 246.845 356.937 247.815 360.305 247.815C363.672 247.815 366.267 246.845 368.09 244.903C369.913 242.962 370.824 239.852 370.824 235.573V212.395H378.431V235.87C378.431 241.932 376.806 246.567 373.558 249.777C370.348 252.986 365.911 254.59 360.245 254.59ZM406.486 253.996V212.395H423.602C427.286 212.395 430.436 212.989 433.051 214.178C435.706 215.366 437.746 217.07 439.172 219.289C440.599 221.508 441.312 224.142 441.312 227.193C441.312 230.244 440.599 232.879 439.172 235.097C437.746 237.276 435.706 238.96 433.051 240.149C430.436 241.298 427.286 241.872 423.602 241.872H410.765L414.212 238.366V253.996H406.486ZM433.705 253.996L423.186 238.901H431.446L442.025 253.996H433.705ZM414.212 239.198L410.765 235.513H423.245C426.652 235.513 429.208 234.78 430.912 233.314C432.655 231.848 433.527 229.808 433.527 227.193C433.527 224.538 432.655 222.498 430.912 221.072C429.208 219.645 426.652 218.932 423.245 218.932H410.765L414.212 215.129V239.198ZM474.322 229.689H495.004V236.048H474.322V229.689ZM474.916 247.518H498.391V253.996H467.191V212.395H497.559V218.873H474.916V247.518ZM577.392 254.59C574.143 254.59 571.151 254.056 568.418 252.986C565.684 251.916 563.307 250.43 561.286 248.529C559.265 246.587 557.7 244.329 556.591 241.753C555.482 239.139 554.927 236.286 554.927 233.195C554.927 230.105 555.482 227.272 556.591 224.697C557.7 222.082 559.265 219.824 561.286 217.922C563.307 215.98 565.684 214.475 568.418 213.405C571.151 212.335 574.123 211.801 577.332 211.801C580.581 211.801 583.553 212.335 586.247 213.405C588.98 214.475 591.358 215.98 593.378 217.922C595.399 219.824 596.964 222.082 598.073 224.697C599.183 227.272 599.737 230.105 599.737 233.195C599.737 236.286 599.183 239.139 598.073 241.753C596.964 244.368 595.399 246.627 593.378 248.529C591.358 250.43 588.98 251.916 586.247 252.986C583.553 254.056 580.601 254.59 577.392 254.59ZM577.332 247.815C579.432 247.815 581.373 247.459 583.156 246.746C584.939 246.032 586.484 245.022 587.792 243.715C589.099 242.368 590.11 240.822 590.823 239.079C591.576 237.296 591.952 235.335 591.952 233.195C591.952 231.056 591.576 229.115 590.823 227.371C590.11 225.588 589.099 224.043 587.792 222.736C586.484 221.389 584.939 220.359 583.156 219.645C581.373 218.932 579.432 218.576 577.332 218.576C575.232 218.576 573.291 218.932 571.508 219.645C569.765 220.359 568.219 221.389 566.872 222.736C565.565 224.043 564.535 225.588 563.782 227.371C563.069 229.115 562.712 231.056 562.712 233.195C562.712 235.295 563.069 237.237 563.782 239.02C564.535 240.803 565.565 242.368 566.872 243.715C568.18 245.022 569.725 246.032 571.508 246.746C573.291 247.459 575.232 247.815 577.332 247.815ZM632.234 231.531H652.975V238.069H632.234V231.531ZM632.887 253.996H625.162V212.395H655.53V218.873H632.887V253.996ZM726.792 254.59C723.544 254.59 720.433 254.135 717.462 253.223C714.49 252.273 712.133 251.064 710.39 249.598L713.064 243.596C714.728 244.903 716.788 245.993 719.245 246.864C721.701 247.736 724.217 248.172 726.792 248.172C728.972 248.172 730.735 247.934 732.082 247.459C733.429 246.983 734.419 246.349 735.053 245.557C735.687 244.725 736.004 243.794 736.004 242.764C736.004 241.496 735.549 240.486 734.637 239.733C733.726 238.94 732.537 238.326 731.071 237.89C729.645 237.415 728.041 236.979 726.258 236.583C724.514 236.187 722.751 235.731 720.968 235.216C719.225 234.661 717.62 233.968 716.154 233.136C714.728 232.264 713.559 231.115 712.648 229.689C711.737 228.263 711.281 226.44 711.281 224.221C711.281 221.963 711.875 219.903 713.064 218.041C714.292 216.139 716.135 214.633 718.591 213.524C721.087 212.375 724.237 211.801 728.041 211.801C730.537 211.801 733.013 212.118 735.469 212.751C737.926 213.385 740.065 214.297 741.888 215.485L739.451 221.488C737.589 220.378 735.667 219.566 733.686 219.051C731.705 218.496 729.804 218.219 727.981 218.219C725.842 218.219 724.098 218.477 722.751 218.992C721.444 219.507 720.473 220.18 719.839 221.012C719.245 221.844 718.948 222.795 718.948 223.865C718.948 225.133 719.383 226.163 720.255 226.955C721.166 227.708 722.335 228.302 723.762 228.738C725.227 229.174 726.852 229.61 728.635 230.046C730.418 230.442 732.181 230.898 733.924 231.413C735.707 231.928 737.312 232.601 738.738 233.433C740.204 234.265 741.373 235.394 742.244 236.821C743.156 238.247 743.611 240.05 743.611 242.229C743.611 244.448 742.997 246.508 741.769 248.41C740.58 250.272 738.738 251.777 736.242 252.926C733.746 254.036 730.596 254.59 726.792 254.59ZM776.366 253.996V218.932H762.578V212.395H797.88V218.932H784.092V253.996H776.366ZM830.496 253.996V237.534L832.22 242.288L814.153 212.395H822.414L836.915 236.464H832.279L846.899 212.395H854.506L836.439 242.288L838.222 237.534V253.996H830.496ZM876.278 253.996V212.395H884.004V247.459H905.755V253.996H876.278ZM936.221 229.689H956.903V236.048H936.221V229.689ZM936.816 247.518H960.291V253.996H929.09V212.395H959.459V218.873H936.816V247.518Z" fill="white"/>
</svg>
