<svg width="236" height="258" viewBox="0 0 236 258" fill="none" xmlns="http://www.w3.org/2000/svg">
<path d="M127.993 102.02V103.489H128.062V24.2845C128.062 18.5858 128.657 13.901 129.828 10.2126C131.017 6.52423 133.481 3.36026 137.222 0.720703H75.0964C65.4996 0.720703 56.6195 2.38136 48.4036 5.72014C40.2052 9.05892 33.4228 13.5339 28.0737 19.1627C22.7247 24.7914 18.4769 31.1193 15.3479 38.129C12.2189 45.1562 10.5233 52.4806 10.2436 60.1196C9.82406 69.5765 11.2924 78.2294 14.6137 86.0782C17.9525 93.9269 22.7771 100.29 29.1051 105.149C35.433 110.009 42.9322 113.383 51.62 115.253C60.3079 117.124 69.8697 116.809 80.2881 114.309C85.5672 113.47 89.3255 113.435 91.5456 114.204C93.7656 114.973 94.1502 116.424 92.6993 118.574C91.2484 120.725 88.2243 122.927 83.6269 125.147C81.5467 126.126 79.5889 127.087 77.7884 128.066C75.9879 129.045 74.3797 129.919 72.9987 130.671C71.6178 131.44 70.1144 132.367 68.5237 133.485C66.933 134.604 65.7093 135.426 64.8703 135.985C64.0312 136.544 62.825 137.541 61.2168 139.009C59.6261 140.46 58.5074 141.439 57.8781 141.928C57.2488 142.418 56.0426 143.589 54.2246 145.477C52.4241 147.347 51.2354 148.571 50.6761 149.13C50.1167 149.69 48.7357 151.176 46.4982 153.605C44.2782 156.035 42.8098 157.678 42.1281 158.5C40.0479 160.72 38.16 162.608 36.4993 164.129C34.8387 165.667 32.8809 167.328 30.6609 169.128C28.4408 170.929 26.3606 172.292 24.4028 173.201C22.4625 174.11 20.1201 175.072 17.4106 176.12C14.7011 177.169 12.0965 177.641 9.5968 177.571C7.09708 177.501 4.10793 177.396 0.6293 177.257C0.209768 177.257 0 177.327 0 177.466C0.139844 177.746 0.279672 177.956 0.419516 178.096C20.8543 181.854 36.4819 180.595 47.3373 174.337C52.4766 171.418 57.4935 167.083 62.3531 161.314C67.2127 155.546 72.0548 149.428 76.8444 142.96C81.6341 136.492 85.9868 131.667 89.8675 128.468C96.2653 122.91 98.5553 118.33 96.7548 114.711C94.6746 110.533 88.906 109.362 79.449 111.163C71.3905 112.561 63.9788 112.037 57.2488 109.607C50.5013 107.177 45.0473 103.419 40.887 98.3495C36.7091 93.2801 33.5626 87.4067 31.395 80.7291C29.2449 74.0516 28.3709 67.0419 28.7905 59.6651C29.0701 52.7078 30.6958 45.9778 33.685 39.4401C36.6742 32.9024 40.6772 27.0639 45.6766 21.9246C50.6761 16.7853 56.9691 12.6774 64.5381 9.61829C72.1072 6.5592 80.358 5.0384 89.2382 5.0384H111.334V103.436H116.228L127.94 101.968L127.993 102.02Z" fill="white"/>
<path d="M221.599 247.754C218.26 244.695 214.711 240.657 210.97 235.657C206.653 229.959 198.734 219.261 187.197 203.546C184.837 200.347 180.03 193.826 172.81 183.95C165.574 174.073 160.714 167.483 158.214 164.144C175.17 139.829 188.858 120.146 199.293 105.13C203.192 99.4315 207.772 94.502 213.051 90.3242C219.449 85.045 225.776 81.7762 232.017 80.5176H196.986C200.744 82.8775 202.195 86.4959 201.356 91.3555C200.797 95.1138 198.926 99.3441 195.727 104.081C186.41 117.419 168.755 142.941 142.761 180.594L127.955 201.867V156.47H111.279V233.56C111.279 239.258 110.685 243.943 109.513 247.631C108.325 251.32 105.86 254.484 102.119 257.123H137.15C133.811 254.903 131.486 252.019 130.158 248.471C128.829 244.922 128.113 240.657 127.973 235.64V207.916C129.231 206.115 132.046 202.042 136.416 195.714C140.786 189.386 144.16 184.492 146.52 181.013L148.18 178.723C157.637 191.659 163.476 199.578 165.696 202.497C168.615 206.535 172.81 212.233 178.317 219.593C183.806 226.97 187.249 231.619 188.63 233.56C192.808 239.258 195.518 243.646 196.759 246.688C198.559 251.005 198.559 254.466 196.759 257.106H235.74C230.741 254.886 226.004 251.757 221.564 247.719L221.599 247.754Z" fill="white"/>
<path d="M127.991 102.02L116.279 103.488H127.991V102.02Z" fill="white"/>
<path d="M116.279 103.484H111.367V104.096L116.279 103.484Z" fill="white"/>
<path d="M136.119 128.798C136.398 128.798 136.538 129.008 136.538 129.428C136.538 129.847 136.398 130.127 136.119 130.267C127.78 133.466 122.781 138.954 121.103 146.733C121.103 147.013 120.858 147.153 120.369 147.153C119.879 147.153 119.635 147.013 119.635 146.733C118.236 139.636 113.237 134.147 104.619 130.267C104.339 130.127 104.199 129.847 104.199 129.428C104.199 129.008 104.339 128.798 104.619 128.798C112.118 126.578 117.135 121.089 119.635 112.332C119.774 112.052 120.054 111.912 120.474 111.912C120.893 111.912 121.103 112.052 121.103 112.332C124.162 122.068 129.161 127.557 136.119 128.798Z" fill="white"/>
</svg>
